Patient4_TMGait_0pt4_02_left_23_GRF.mot
version=1
nRows=32
nColumns=19
inDegrees=no
endheader
time	F1x	F1y	F1z	M1x	M1y	M1z	F2x	F2y	F2z	M2x	M2y	M2z	EC1x	EC1y	EC1z	EC2x	EC2y	EC2z
30.82	-1.9636	8.8599	4.3814	-3.1401	-4.7157	10.157	-21.7632	732.5334	-51.7248	264.5168	73.7215	849.0113	-0.0592	0.0182	-0.0073	-0.0462	0.0165	0.9585
30.8334	-1.2215	6.6734	2.9878	-2.3783	-3.1594	7.822	-19.2094	737.1228	-54.9813	266.5834	74.9147	853.4745	-0.0592	0.0182	-0.0073	-0.0462	0.0165	0.9585
30.8467	-0.6083	4.8734	1.8072	-1.7434	-1.8481	5.8668	-16.7516	743.1145	-57.8586	269.033	75.8234	858.8098	-0.0592	0.0182	-0.0073	-0.0462	0.0165	0.9585
30.8601	-0.15343	3.5586	0.90666	-1.2724	-0.85666	4.4043	-14.4759	750.4614	-60.2165	271.8278	76.3973	864.9441	-0.0592	0.0182	-0.0073	-0.0462	0.0165	0.9585
30.8734	0.14469	2.7042	0.28744	-0.95901	-0.19048	3.4219	-12.3817	758.8751	-62.0262	274.8761	76.6207	871.6186	-0.0592	0.0182	-0.0073	-0.0462	0.0165	0.9585
30.8868	0.31213	2.2124	-0.097068	-0.77206	0.20111	2.8307	-10.4217	767.8125	-63.3176	278.0113	76.4954	878.3265	-0.0592	0.0182	-0.0073	-0.0462	0.0165	0.9585
30.9001	0.37257	1.9531	-0.29406	-0.66707	0.37368	2.4971	-8.5593	776.5062	-64.1222	280.9963	76.0137	884.3323	-0.0592	0.0182	-0.0073	-0.0462	0.0165	0.9585
30.9135	0.35032	1.7842	-0.36055	-0.59608	0.39309	2.2635	-6.7509	784.0552	-64.4763	283.5452	75.1621	888.7516	-0.0592	0.0182	-0.0073	-0.0462	0.0165	0.9585
30.9269	0.27066	1.5514	-0.33825	-0.50739	0.31249	1.9507	-4.9519	789.5513	-64.3949	285.361	73.9077	890.6838	-0.0592	0.0182	-0.0073	-0.0462	0.0165	0.9585
30.9402	0.14806	1.1104	-0.26896	-0.35061	0.17907	1.3904	-3.1277	792.1838	-63.8941	286.1725	72.2313	889.3287	-0.0592	0.0182	-0.0073	-0.0462	0.0165	0.9585
30.9536	-0.0028795	0.3347	-0.17768	-0.081172	0.024201	0.42401	-1.2365	791.4046	-62.9847	285.7911	70.1179	884.1668	-0.0592	0.0182	-0.0073	-0.0462	0.0165	0.9585
30.9669	-0.16329	-0.87479	-0.08767	0.33616	-0.12419	-1.075	0.77793	787.0224	-61.7255	284.1432	67.6043	875.057	-0.0592	0.0182	-0.0073	-0.0462	0.0165	0.9585
30.9803	-0.30111	-2.5552	-0.019367	0.91475	-0.23637	-3.1574	2.9665	779.2316	-60.2321	281.2857	64.7951	862.2727	-0.0592	0.0182	-0.0073	-0.0462	0.0165	0.9585
30.9936	-0.36044	-4.6368	0.015234	1.6315	-0.28115	-5.7417	5.3715	768.6703	-58.6768	277.43	61.8628	846.5665	-0.0592	0.0182	-0.0073	-0.0462	0.0165	0.9585
31.007	-0.2645	-6.8922	-0.010648	2.4075	-0.20229	-8.5464	8.0461	756.4061	-57.2516	272.9413	59.0027	829.1329	-0.0592	0.0182	-0.0073	-0.0462	0.0165	0.9585
31.0204	0.088005	-8.8647	-0.1207	3.0843	0.066663	-11.001	11.0236	743.772	-56.1499	268.2843	56.4145	811.4282	-0.0592	0.0182	-0.0073	-0.0462	0.0165	0.9585
31.0337	0.81579	-9.771	-0.34779	3.3883	0.60868	-12.1251	14.3026	732.1041	-55.5276	263.9307	54.268	794.9083	-0.0592	0.0182	-0.0073	-0.0462	0.0165	0.9585
31.0471	2.047	-8.4472	-0.71276	2.9097	1.4963	-10.4688	17.8303	722.4565	-55.488	260.2552	52.6903	780.7323	-0.0592	0.0182	-0.0073	-0.0462	0.0165	0.9585
31.0604	3.8816	-3.3176	-1.2358	1.0952	2.7866	-4.0752	21.47	715.2952	-56.0396	257.4261	51.7311	769.4526	-0.0592	0.0182	-0.0073	-0.0462	0.0165	0.9585
31.0738	6.3473	7.5584	-1.9044	-2.7341	4.4697	9.4636	25.0044	710.2559	-57.0837	255.3206	51.3524	760.756	-0.0592	0.0182	-0.0073	-0.0462	0.0165	0.9585
31.0871	9.3447	26.2725	-2.6595	-9.3112	6.432	32.7429	28.1721	706.1129	-58.402	253.5126	51.4104	753.4265	-0.0592	0.0182	-0.0073	-0.0462	0.0165	0.9585
31.1005	12.5366	54.6437	-3.3709	-19.2726	8.3922	68.0249	30.7036	700.94	-59.6776	251.3277	51.6694	745.5097	-0.0592	0.0182	-0.0073	-0.0462	0.0165	0.9585
31.1139	15.2486	93.5423	-3.8105	-32.9158	9.8269	116.3835	32.334	692.3887	-60.5289	247.9421	51.827	734.6013	-0.0592	0.0182	-0.0073	-0.0462	0.0165	0.9585
31.1272	16.3516	141.822	-3.6302	-49.8261	9.9051	176.3851	32.8457	678.0985	-60.573	242.5255	51.5672	718.2721	-0.0592	0.0182	-0.0073	-0.0462	0.0165	0.9585
31.1406	14.3802	195.1044	-2.3312	-68.4494	7.5119	242.5849	32.1328	656.2496	-59.5026	234.4393	50.6187	694.6304	-0.0592	0.0182	-0.0073	-0.0462	0.0165	0.9585
31.1539	9.2668	246.3517	0.78922	-86.2824	1.8068	306.2319	30.2375	626.1846	-57.1722	223.4631	48.8314	662.9519	-0.0592	0.0182	-0.0073	-0.0462	0.0165	0.9585
31.1673	2.8371	290.3978	5.8824	-101.5034	-6.6754	360.7192	27.4279	588.9107	-53.6748	209.9692	46.2252	624.1619	-0.0592	0.0182	-0.0073	-0.0462	0.0165	0.9585
31.1806	-3.3822	326.8059	11.961	-113.9831	-16.2539	405.2539	24.1627	546.8765	-49.3913	194.8279	43.0348	580.636	-0.0592	0.0182	-0.0073	-0.0462	0.0165	0.9585
31.194	-8.4602	357.4647	18.5686	-124.4138	-25.9899	442.1314	20.9898	502.8697	-44.8245	179.0326	39.5693	535.0798	-0.0592	0.0182	-0.0073	-0.0462	0.0165	0.9585
31.2074	-12.0229	384.796	24.9202	-133.6948	-34.8585	474.3608	18.3247	459.2255	-40.3194	163.4159	36.015	489.7727	-0.0592	0.0182	-0.0073	-0.0462	0.0165	0.9585
31.2207	-14.2289	410.5532	30.7185	-142.4732	-42.5152	504.2621	16.4056	417.4468	-36.0644	148.5122	32.457	446.1921	-0.0592	0.0182	-0.0073	-0.0462	0.0165	0.9585
31.2341	-15.2795	435.507	35.4688	-151.0621	-48.4891	532.7863	15.2477	378.2512	-32.0861	134.5704	28.8937	405.0656	-0.0592	0.0182	-0.0073	-0.0462	0.0165	0.9585
